<svg version="1.2" xmlns="http://www.w3.org/2000/svg" viewBox="0 0 1190 1684" width="1190" height="1684">
	<title>ARQUIVOREDONDO_-ai</title>
	<style>
		tspan { white-space:pre } 
		.s0 { fill: #eab29f } 
		.s1 { fill: none;stroke: #ffffff;stroke-width: 6;stroke-dasharray: 12,18 } 
		.s2 { fill: #ffffff } 
	</style>
	<g id="Camada 1" style="opacity: 1">
		<g id="&lt;Group&gt;">
			<g id="&lt;Group&gt;">
				<circle id="&lt;Path&gt;" class="s0" cx="598.1" cy="858" r="372.5"/>
			</g>
			<circle id="&lt;Path&gt;" class="s1" cx="598.1" cy="858" r="337.7"/>
			<g id="&lt;Group&gt;">
				<g id="&lt;Group&gt;">
					<g id="&lt;Group&gt;">
						<path id="&lt;Path&gt;" class="s2" d="m572.8 847.3c-4.7-1-8.9-1.9-12.5-2.7 3.6-19.5 6.8-38.8 11-57.9 4.6-21.1 15.6-37.9 35.2-48.2 10.9-5.7 22.6-8 34.8-7.9 19.1 0.2 36.6 5.6 51.6 17.2 23.2 17.9 37.8 41.1 36.5 71.3-1.1 26.2-14.6 45.6-37.6 58.2-13.3 7.2-28 8.4-42.9 7.2-1-0.1-2.1-0.1-3.1-0.2-1-0.1-1.9-0.3-3.3-0.6 1.3-4.2 2.5-8.4 3.8-12.5 9.3 0.7 18.3 0.8 27.3-1.2 14.3-3.4 25.1-11.6 33.4-23.5 7.7-11.1 11-23.4 9.2-36.9-1.8-14.1-7.9-26.2-16.7-37.1-16.5-20.3-38.1-29.8-64-28.5-24.3 1.2-44.1 17.5-50.2 41.1-3.4 13.4-5.2 27.3-7.9 41-1.4 7-3 13.9-4.6 21.2z"/>
					</g>
					<g id="&lt;Group&gt;">
						<path id="&lt;Path&gt;" class="s2" d="m682.6 764.2c3.5 3.3 6.5 6.3 9.6 9.4-3.6 4.9-7.1 9.6-10.4 14.4-14.2 20-26.5 41-35.6 63.8-7.7 19.5-12.4 39.8-16.3 60.3-2.8 15.1-5.7 30.3-12.2 44.5-6.1 13.4-14.2 25.6-25.7 35-11.7 9.7-25.7 13.7-40.6 14.1-18.7 0.6-36-4.4-51.7-14.6-0.4-0.2-0.7-0.5-1.4-0.9 2.8-3.4 5.5-6.7 7.9-9.6 7 2.9 13.3 6.3 20.1 8.4 16.4 5 32.7 5.1 48.7-2.1 9.1-4 15.4-11.2 21.1-19 10.6-14.4 15.5-31.1 18.9-48.3 4.1-20.8 7.9-41.7 14.8-61.8 9.4-27.5 23.5-52.6 40.2-76.3 4-5.7 8.2-11.2 12.6-17.3z"/>
					</g>
					<g id="&lt;Group&gt;">
						<path id="&lt;Path&gt;" class="s2" d="m620.3 866.4c-1.3 4.4-2.4 8.4-3.6 12.7-5.2-1.4-10.1-2.8-15-3.9-18.1-4.4-36.1-9.1-54.4-12.7-15.5-3.1-31.3-2.9-46 4.1-21.8 10.4-31.1 26.7-29.8 49.6 0.9 16.7 6.9 31.7 16.4 45.6-2.8 3.4-5.6 6.7-9 10.9-3.7-6.4-7.6-12.2-10.7-18.4-6.5-13.1-10-27.1-10-41.9-0.1-25.1 11.5-43.3 33-55.5 14-8.1 29.5-9.9 45.4-8.9 21 1.3 41 7.4 61.2 12.6 7.4 1.9 14.8 3.8 22.5 5.8z"/>
					</g>
					<g id="&lt;Group&gt;">
						<path id="&lt;Path&gt;" class="s2" d="m551.2 869.4c4.5 1 8.6 1.8 13.1 2.8-2.4 5.6-4.6 11-7.1 16.3-14.1 30.4-32.5 58.2-53.3 84.4-13.2 16.6-27.3 32.5-41 48.6-3 3.5-7.4 3.9-10.2 1.4-2.9-2.6-2.9-6.7 0.2-10.3 11.1-13 22.5-25.7 33.3-38.9 22.5-27.6 42.8-56.8 58.3-89.1 2.3-4.9 4.4-9.9 6.7-15.2z"/>
					</g>
					<g id="&lt;Group&gt;">
						<path id="&lt;Path&gt;" class="s2" d="m699.8 743.4c4.7-5.4 9.8-11.4 15.2-17.3 2.6-2.8 6.9-2.9 9.5-0.5 2.5 2.3 2.9 6.3 0.4 9.2-5.1 6.1-10.5 12-15.6 17.9-3.1-3.1-6.1-6-9.5-9.3z"/>
					</g>
				</g>
			</g>
		</g>
	</g>
</svg>